<?xml version="1.0" standalone="no"?>
<!DOCTYPE svg PUBLIC "-//W3C//DTD SVG 20010904//EN"
 "http://www.w3.org/TR/2001/REC-SVG-20010904/DTD/svg10.dtd">
<svg version="1.0" xmlns="http://www.w3.org/2000/svg"
 width="156.000000pt" height="156.000000pt" viewBox="0 0 156.000000 156.000000"
 preserveAspectRatio="xMidYMid meet">
<metadata>
Created by potrace 1.14, written by Peter Selinger 2001-2017
</metadata>
<g transform="translate(0.000000,156.000000) scale(0.100000,-0.100000)"
fill="#000000" stroke="none">
<path d="M652 1544 c-82 -22 -152 -72 -152 -108 0 -12 10 -48 21 -81 16 -48
35 -215 24 -215 -2 0 -22 9 -46 20 -64 28 -113 26 -138 -6 -25 -32 -20 -63 20
-121 l29 -42 -23 -34 c-27 -40 -34 -115 -13 -162 10 -24 10 -34 0 -55 -50 -98
-56 -138 -25 -169 26 -26 16 -32 -27 -17 -82 29 -151 -15 -154 -97 -2 -69 70
-175 154 -227 l32 -19 -45 -19 c-24 -10 -60 -22 -80 -26 -45 -8 -70 -34 -62
-64 7 -27 43 -38 73 -22 12 6 22 10 23 8 19 -38 27 -43 68 -45 24 -1 56 -5 71
-8 19 -5 34 -1 56 15 37 28 75 24 77 -8 2 -27 20 -42 52 -42 23 0 56 37 47 52
-9 14 13 9 26 -7 19 -23 56 -18 78 10 25 32 55 32 76 0 19 -28 57 -33 76 -10
17 21 28 19 32 -6 7 -52 84 -51 95 1 4 25 11 30 33 30 15 0 37 -9 50 -20 23
-20 60 -26 74 -12 4 4 28 7 53 7 43 0 50 4 70 43 1 2 11 -2 23 -8 43 -23 91
10 75 53 -7 15 -26 24 -103 48 -75 22 -80 31 -34 62 78 51 126 119 138 194 14
93 -58 149 -151 117 -45 -15 -55 -11 -33 13 22 26 26 45 16 73 -6 14 -12 36
-14 50 -3 14 -13 36 -23 50 -16 23 -16 28 -3 60 19 47 11 123 -17 161 l-22 30
30 31 c43 45 56 81 41 118 -20 48 -77 55 -157 20 -23 -10 -44 -16 -46 -13 -5
4 -2 51 8 123 3 19 15 64 26 99 18 54 19 67 8 87 -42 79 -263 127 -407 88z
m-267 -924 c15 -16 16 -22 5 -35 -16 -19 -31 -7 -35 29 -4 31 6 33 30 6z m825
-4 c0 -34 -25 -53 -38 -29 -8 13 -6 23 5 35 22 25 33 22 33 -6z"/>
</g>
</svg>
